<mxfile host="app.diagrams.net" modified="2023-05-11T15:43:01.245Z" agent="Mozilla/5.0 (Windows NT 10.0; Win64; x64; rv:109.0) Gecko/20100101 Firefox/110.0" version="21.1.7" etag="724YO4IzB3HBAfTFc8Sc" type="github">
  <diagram name="第 1 页" id="P6NPqrdBU4XBKCTYdZDC">
    <mxGraphModel>
      <root>
        <mxCell id="0" />
        <mxCell id="1" parent="0" />
      </root>
    </mxGraphModel>
  </diagram>
</mxfile>
